<?xml version="1.0" encoding="UTF-8" standalone="no"?>
<!DOCTYPE svg PUBLIC "-//W3C//DTD SVG 1.1//EN" "http://www.w3.org/Graphics/SVG/1.1/DTD/svg11.dtd">
<svg width="100%" height="100%" viewBox="0 0 600 300" version="1.1" xmlns="http://www.w3.org/2000/svg" xmlns:xlink="http://www.w3.org/1999/xlink" xml:space="preserve" xmlns:serif="http://www.serif.com/" style="fill-rule:evenodd;clip-rule:evenodd;stroke-linejoin:round;stroke-miterlimit:2;">
    <rect x="0" y="0" width="600" height="300" style="fill:#00b3ea;"/>
    <g transform="matrix(1,0,0,1,6.05775,-2.08655)">
        <g transform="matrix(36,0,0,36,194.528,212.368)">
            <path d="M0.54,-0.087L0.54,0L0.037,0L0.037,-0.068L0.322,-0.343C0.357,-0.376 0.38,-0.405 0.392,-0.43C0.404,-0.454 0.41,-0.478 0.41,-0.503C0.41,-0.54 0.397,-0.568 0.372,-0.589C0.346,-0.609 0.309,-0.619 0.261,-0.619C0.184,-0.619 0.124,-0.594 0.082,-0.543L0.014,-0.602C0.041,-0.635 0.077,-0.661 0.122,-0.68C0.166,-0.699 0.215,-0.708 0.27,-0.708C0.343,-0.708 0.402,-0.691 0.445,-0.656C0.488,-0.62 0.51,-0.573 0.51,-0.513C0.51,-0.476 0.502,-0.44 0.486,-0.407C0.47,-0.374 0.44,-0.336 0.395,-0.293L0.181,-0.087L0.54,-0.087Z" style="fill:#fff;fill-rule:nonzero;"/>
        </g>
        <g transform="matrix(36,0,0,36,215.084,212.368)">
            <path d="M0.334,0.008C0.279,0.008 0.23,-0.006 0.187,-0.035C0.143,-0.063 0.11,-0.104 0.085,-0.158C0.06,-0.212 0.048,-0.276 0.048,-0.35C0.048,-0.424 0.06,-0.488 0.085,-0.542C0.11,-0.596 0.143,-0.637 0.187,-0.666C0.23,-0.694 0.279,-0.708 0.334,-0.708C0.389,-0.708 0.438,-0.694 0.481,-0.666C0.524,-0.637 0.557,-0.596 0.582,-0.542C0.607,-0.488 0.619,-0.424 0.619,-0.35C0.619,-0.276 0.607,-0.212 0.582,-0.158C0.557,-0.104 0.524,-0.063 0.481,-0.035C0.438,-0.006 0.389,0.008 0.334,0.008ZM0.334,-0.081C0.39,-0.081 0.435,-0.104 0.469,-0.15C0.502,-0.196 0.519,-0.263 0.519,-0.35C0.519,-0.437 0.502,-0.504 0.469,-0.55C0.435,-0.596 0.39,-0.619 0.334,-0.619C0.277,-0.619 0.232,-0.596 0.199,-0.55C0.165,-0.504 0.148,-0.437 0.148,-0.35C0.148,-0.263 0.165,-0.196 0.199,-0.15C0.232,-0.104 0.277,-0.081 0.334,-0.081Z" style="fill:#fff;fill-rule:nonzero;"/>
        </g>
        <g transform="matrix(36,0,0,36,238.988,212.368)">
            <path d="M0.265,-0.7L0.265,0L0.166,0L0.166,-0.613L0.008,-0.613L0.008,-0.7L0.265,-0.7Z" style="fill:#fff;fill-rule:nonzero;"/>
        </g>
        <g transform="matrix(36,0,0,36,252.308,212.368)">
            <path d="M0.275,-0.708C0.369,-0.708 0.442,-0.678 0.493,-0.617C0.544,-0.556 0.569,-0.47 0.569,-0.359C0.569,-0.281 0.555,-0.215 0.528,-0.16C0.5,-0.105 0.461,-0.063 0.412,-0.035C0.362,-0.006 0.304,0.008 0.238,0.008C0.204,0.008 0.172,0.005 0.142,-0.003C0.112,-0.01 0.086,-0.02 0.064,-0.033L0.102,-0.111C0.136,-0.089 0.181,-0.078 0.237,-0.078C0.31,-0.078 0.367,-0.1 0.408,-0.146C0.449,-0.191 0.469,-0.256 0.469,-0.342L0.469,-0.367C0.449,-0.337 0.421,-0.314 0.386,-0.299C0.351,-0.283 0.311,-0.275 0.267,-0.275C0.221,-0.275 0.18,-0.284 0.144,-0.301C0.107,-0.318 0.079,-0.343 0.059,-0.376C0.038,-0.408 0.028,-0.445 0.028,-0.487C0.028,-0.531 0.039,-0.57 0.061,-0.603C0.082,-0.636 0.112,-0.662 0.149,-0.681C0.186,-0.699 0.228,-0.708 0.275,-0.708ZM0.284,-0.356C0.315,-0.356 0.343,-0.362 0.368,-0.374C0.393,-0.386 0.412,-0.402 0.426,-0.423C0.439,-0.444 0.446,-0.467 0.446,-0.492C0.446,-0.517 0.44,-0.539 0.427,-0.56C0.413,-0.58 0.395,-0.596 0.37,-0.609C0.345,-0.621 0.314,-0.627 0.279,-0.627C0.233,-0.627 0.196,-0.615 0.168,-0.59C0.139,-0.565 0.125,-0.532 0.125,-0.491C0.125,-0.45 0.139,-0.417 0.168,-0.393C0.197,-0.368 0.235,-0.356 0.284,-0.356Z" style="fill:#fff;fill-rule:nonzero;"/>
        </g>
        <g transform="matrix(36,0,0,36,284.204,212.368)">
            <rect x="0.057" y="-0.316" width="0.269" height="0.083" style="fill:#fff;fill-rule:nonzero;"/>
        </g>
        <g transform="matrix(36,0,0,36,307.676,212.368)">
            <path d="M0.54,-0.087L0.54,0L0.037,0L0.037,-0.068L0.322,-0.343C0.357,-0.376 0.38,-0.405 0.392,-0.43C0.404,-0.454 0.41,-0.478 0.41,-0.503C0.41,-0.54 0.397,-0.568 0.372,-0.589C0.346,-0.609 0.309,-0.619 0.261,-0.619C0.184,-0.619 0.124,-0.594 0.082,-0.543L0.014,-0.602C0.041,-0.635 0.077,-0.661 0.122,-0.68C0.166,-0.699 0.215,-0.708 0.27,-0.708C0.343,-0.708 0.402,-0.691 0.445,-0.656C0.488,-0.62 0.51,-0.573 0.51,-0.513C0.51,-0.476 0.502,-0.44 0.486,-0.407C0.47,-0.374 0.44,-0.336 0.395,-0.293L0.181,-0.087L0.54,-0.087Z" style="fill:#fff;fill-rule:nonzero;"/>
        </g>
        <g transform="matrix(36,0,0,36,328.232,212.368)">
            <path d="M0.334,0.008C0.279,0.008 0.23,-0.006 0.187,-0.035C0.143,-0.063 0.11,-0.104 0.085,-0.158C0.06,-0.212 0.048,-0.276 0.048,-0.35C0.048,-0.424 0.06,-0.488 0.085,-0.542C0.11,-0.596 0.143,-0.637 0.187,-0.666C0.23,-0.694 0.279,-0.708 0.334,-0.708C0.389,-0.708 0.438,-0.694 0.481,-0.666C0.524,-0.637 0.557,-0.596 0.582,-0.542C0.607,-0.488 0.619,-0.424 0.619,-0.35C0.619,-0.276 0.607,-0.212 0.582,-0.158C0.557,-0.104 0.524,-0.063 0.481,-0.035C0.438,-0.006 0.389,0.008 0.334,0.008ZM0.334,-0.081C0.39,-0.081 0.435,-0.104 0.469,-0.15C0.502,-0.196 0.519,-0.263 0.519,-0.35C0.519,-0.437 0.502,-0.504 0.469,-0.55C0.435,-0.596 0.39,-0.619 0.334,-0.619C0.277,-0.619 0.232,-0.596 0.199,-0.55C0.165,-0.504 0.148,-0.437 0.148,-0.35C0.148,-0.263 0.165,-0.196 0.199,-0.15C0.232,-0.104 0.277,-0.081 0.334,-0.081Z" style="fill:#fff;fill-rule:nonzero;"/>
        </g>
        <g transform="matrix(36,0,0,36,352.136,212.368)">
            <path d="M0.54,-0.087L0.54,0L0.037,0L0.037,-0.068L0.322,-0.343C0.357,-0.376 0.38,-0.405 0.392,-0.43C0.404,-0.454 0.41,-0.478 0.41,-0.503C0.41,-0.54 0.397,-0.568 0.372,-0.589C0.346,-0.609 0.309,-0.619 0.261,-0.619C0.184,-0.619 0.124,-0.594 0.082,-0.543L0.014,-0.602C0.041,-0.635 0.077,-0.661 0.122,-0.68C0.166,-0.699 0.215,-0.708 0.27,-0.708C0.343,-0.708 0.402,-0.691 0.445,-0.656C0.488,-0.62 0.51,-0.573 0.51,-0.513C0.51,-0.476 0.502,-0.44 0.486,-0.407C0.47,-0.374 0.44,-0.336 0.395,-0.293L0.181,-0.087L0.54,-0.087Z" style="fill:#fff;fill-rule:nonzero;"/>
        </g>
        <g transform="matrix(36,0,0,36,372.692,212.368)">
            <path d="M0.334,0.008C0.279,0.008 0.23,-0.006 0.187,-0.035C0.143,-0.063 0.11,-0.104 0.085,-0.158C0.06,-0.212 0.048,-0.276 0.048,-0.35C0.048,-0.424 0.06,-0.488 0.085,-0.542C0.11,-0.596 0.143,-0.637 0.187,-0.666C0.23,-0.694 0.279,-0.708 0.334,-0.708C0.389,-0.708 0.438,-0.694 0.481,-0.666C0.524,-0.637 0.557,-0.596 0.582,-0.542C0.607,-0.488 0.619,-0.424 0.619,-0.35C0.619,-0.276 0.607,-0.212 0.582,-0.158C0.557,-0.104 0.524,-0.063 0.481,-0.035C0.438,-0.006 0.389,0.008 0.334,0.008ZM0.334,-0.081C0.39,-0.081 0.435,-0.104 0.469,-0.15C0.502,-0.196 0.519,-0.263 0.519,-0.35C0.519,-0.437 0.502,-0.504 0.469,-0.55C0.435,-0.596 0.39,-0.619 0.334,-0.619C0.277,-0.619 0.232,-0.596 0.199,-0.55C0.165,-0.504 0.148,-0.437 0.148,-0.35C0.148,-0.263 0.165,-0.196 0.199,-0.15C0.232,-0.104 0.277,-0.081 0.334,-0.081Z" style="fill:#fff;fill-rule:nonzero;"/>
        </g>
    </g>
    <g transform="matrix(1,0,0,1,-234.631,-48.8259)">
        <g transform="matrix(48,0,0,48,300.439,150.346)">
            <path d="M0.318,0.016C0.26,0.016 0.204,0.01 0.149,-0.004C0.093,-0.017 0.048,-0.034 0.013,-0.056L0.089,-0.228C0.122,-0.209 0.16,-0.193 0.201,-0.182C0.242,-0.17 0.282,-0.164 0.32,-0.164C0.353,-0.164 0.376,-0.167 0.39,-0.174C0.404,-0.18 0.411,-0.189 0.411,-0.202C0.411,-0.217 0.402,-0.228 0.384,-0.235C0.365,-0.242 0.335,-0.25 0.293,-0.259C0.239,-0.27 0.194,-0.283 0.158,-0.296C0.122,-0.309 0.091,-0.33 0.064,-0.36C0.037,-0.389 0.024,-0.429 0.024,-0.48C0.024,-0.524 0.036,-0.564 0.061,-0.6C0.086,-0.636 0.123,-0.664 0.172,-0.685C0.221,-0.706 0.28,-0.716 0.35,-0.716C0.398,-0.716 0.445,-0.711 0.492,-0.701C0.538,-0.69 0.579,-0.675 0.614,-0.655L0.543,-0.484C0.474,-0.519 0.409,-0.536 0.348,-0.536C0.287,-0.536 0.257,-0.521 0.257,-0.492C0.257,-0.478 0.266,-0.468 0.284,-0.461C0.302,-0.454 0.332,-0.446 0.373,-0.438C0.426,-0.428 0.471,-0.417 0.508,-0.404C0.545,-0.391 0.577,-0.369 0.604,-0.34C0.631,-0.311 0.644,-0.271 0.644,-0.22C0.644,-0.176 0.632,-0.136 0.607,-0.101C0.582,-0.065 0.546,-0.037 0.497,-0.016C0.448,0.006 0.388,0.016 0.318,0.016Z" style="fill:#fff;fill-rule:nonzero;"/>
        </g>
        <g transform="matrix(48,0,0,48,331.975,150.346)">
            <path d="M0.453,-0.019C0.419,0 0.373,0.01 0.314,0.01C0.237,0.01 0.178,-0.008 0.137,-0.046C0.096,-0.083 0.075,-0.138 0.075,-0.212L0.075,-0.352L0,-0.352L0,-0.517L0.075,-0.517L0.075,-0.67L0.301,-0.67L0.301,-0.517L0.413,-0.517L0.413,-0.352L0.301,-0.352L0.301,-0.214C0.301,-0.197 0.305,-0.184 0.314,-0.175C0.323,-0.166 0.334,-0.161 0.348,-0.161C0.367,-0.161 0.384,-0.166 0.399,-0.176L0.453,-0.019Z" style="fill:#fff;fill-rule:nonzero;"/>
        </g>
        <g transform="matrix(48,0,0,48,354.055,150.346)">
            <path d="M0.295,-0.557C0.391,-0.557 0.464,-0.536 0.515,-0.493C0.566,-0.45 0.591,-0.383 0.591,-0.294L0.591,0L0.381,0L0.381,-0.072C0.355,-0.017 0.303,0.01 0.226,0.01C0.183,0.01 0.146,0.003 0.116,-0.013C0.085,-0.028 0.062,-0.048 0.047,-0.074C0.031,-0.099 0.023,-0.128 0.023,-0.16C0.023,-0.214 0.044,-0.255 0.085,-0.283C0.126,-0.311 0.189,-0.325 0.273,-0.325L0.364,-0.325C0.357,-0.368 0.322,-0.389 0.261,-0.389C0.236,-0.389 0.211,-0.385 0.186,-0.378C0.161,-0.37 0.139,-0.359 0.121,-0.346L0.049,-0.495C0.08,-0.514 0.118,-0.53 0.163,-0.541C0.207,-0.552 0.251,-0.557 0.295,-0.557ZM0.294,-0.126C0.31,-0.126 0.324,-0.13 0.337,-0.139C0.35,-0.148 0.359,-0.161 0.365,-0.178L0.365,-0.216L0.309,-0.216C0.263,-0.216 0.24,-0.201 0.24,-0.17C0.24,-0.157 0.245,-0.147 0.255,-0.139C0.264,-0.13 0.277,-0.126 0.294,-0.126Z" style="fill:#fff;fill-rule:nonzero;"/>
        </g>
        <g transform="matrix(48,0,0,48,385.207,150.346)">
            <path d="M0.661,-0.547L0.661,-0.109C0.661,-0.005 0.632,0.073 0.575,0.126C0.517,0.178 0.435,0.204 0.328,0.204C0.273,0.204 0.222,0.198 0.175,0.187C0.128,0.175 0.087,0.158 0.054,0.136L0.13,-0.018C0.151,-0.002 0.178,0.011 0.211,0.021C0.244,0.031 0.275,0.036 0.305,0.036C0.35,0.036 0.383,0.026 0.404,0.007C0.425,-0.012 0.435,-0.041 0.435,-0.078L0.435,-0.088C0.401,-0.049 0.351,-0.03 0.284,-0.03C0.237,-0.03 0.194,-0.041 0.154,-0.063C0.113,-0.084 0.081,-0.115 0.057,-0.156C0.033,-0.196 0.021,-0.242 0.021,-0.294C0.021,-0.346 0.033,-0.392 0.057,-0.432C0.081,-0.472 0.113,-0.503 0.154,-0.525C0.194,-0.546 0.237,-0.557 0.284,-0.557C0.359,-0.557 0.413,-0.533 0.446,-0.485L0.446,-0.547L0.661,-0.547ZM0.344,-0.206C0.371,-0.206 0.393,-0.214 0.411,-0.231C0.428,-0.247 0.437,-0.268 0.437,-0.294C0.437,-0.32 0.428,-0.341 0.411,-0.357C0.393,-0.373 0.371,-0.381 0.344,-0.381C0.317,-0.381 0.294,-0.373 0.277,-0.357C0.259,-0.341 0.25,-0.32 0.25,-0.294C0.25,-0.268 0.259,-0.247 0.277,-0.231C0.295,-0.214 0.317,-0.206 0.344,-0.206Z" style="fill:#fff;fill-rule:nonzero;"/>
        </g>
        <g transform="matrix(48,0,0,48,419.335,150.346)">
            <path d="M0.632,-0.274C0.632,-0.271 0.631,-0.253 0.629,-0.221L0.249,-0.221C0.257,-0.2 0.27,-0.185 0.289,-0.174C0.308,-0.163 0.331,-0.157 0.359,-0.157C0.383,-0.157 0.403,-0.16 0.42,-0.166C0.436,-0.172 0.454,-0.182 0.473,-0.197L0.591,-0.078C0.538,-0.019 0.458,0.01 0.352,0.01C0.286,0.01 0.228,-0.002 0.178,-0.027C0.128,-0.051 0.089,-0.085 0.062,-0.128C0.035,-0.171 0.021,-0.22 0.021,-0.274C0.021,-0.329 0.035,-0.377 0.062,-0.421C0.089,-0.463 0.126,-0.497 0.173,-0.521C0.22,-0.545 0.272,-0.557 0.331,-0.557C0.386,-0.557 0.437,-0.546 0.483,-0.524C0.528,-0.502 0.565,-0.47 0.592,-0.427C0.619,-0.384 0.632,-0.333 0.632,-0.274ZM0.333,-0.403C0.31,-0.403 0.29,-0.397 0.275,-0.384C0.26,-0.371 0.25,-0.353 0.245,-0.33L0.421,-0.33C0.416,-0.353 0.406,-0.371 0.391,-0.384C0.376,-0.397 0.356,-0.403 0.333,-0.403Z" style="fill:#fff;fill-rule:nonzero;"/>
        </g>
        <g transform="matrix(48,0,0,48,465.079,150.346)">
            <path d="M0.453,-0.019C0.419,0 0.373,0.01 0.314,0.01C0.237,0.01 0.178,-0.008 0.137,-0.046C0.096,-0.083 0.075,-0.138 0.075,-0.212L0.075,-0.352L0,-0.352L0,-0.517L0.075,-0.517L0.075,-0.67L0.301,-0.67L0.301,-0.517L0.413,-0.517L0.413,-0.352L0.301,-0.352L0.301,-0.214C0.301,-0.197 0.305,-0.184 0.314,-0.175C0.323,-0.166 0.334,-0.161 0.348,-0.161C0.367,-0.161 0.384,-0.166 0.399,-0.176L0.453,-0.019Z" style="fill:#fff;fill-rule:nonzero;"/>
        </g>
        <g transform="matrix(48,0,0,48,487.159,150.346)">
            <path d="M0.05,-0.547L0.276,-0.547L0.276,0L0.05,0L0.05,-0.547ZM0.163,-0.591C0.122,-0.591 0.09,-0.602 0.065,-0.624C0.04,-0.645 0.027,-0.673 0.027,-0.706C0.027,-0.739 0.04,-0.767 0.065,-0.789C0.09,-0.81 0.122,-0.821 0.163,-0.821C0.204,-0.821 0.237,-0.811 0.262,-0.79C0.287,-0.769 0.299,-0.743 0.299,-0.71C0.299,-0.675 0.287,-0.647 0.262,-0.625C0.237,-0.602 0.204,-0.591 0.163,-0.591Z" style="fill:#fff;fill-rule:nonzero;"/>
        </g>
        <g transform="matrix(48,0,0,48,502.807,150.346)">
            <path d="M0.265,-0.488C0.305,-0.534 0.364,-0.557 0.442,-0.557L0.442,-0.357C0.424,-0.36 0.407,-0.361 0.392,-0.361C0.315,-0.361 0.276,-0.322 0.276,-0.243L0.276,0L0.05,0L0.05,-0.547L0.265,-0.547L0.265,-0.488Z" style="fill:#fff;fill-rule:nonzero;"/>
        </g>
        <g transform="matrix(48,0,0,48,539.095,150.346)">
            <rect x="0.05" y="-0.742" width="0.226" height="0.742" style="fill:#fff;fill-rule:nonzero;"/>
        </g>
        <g transform="matrix(48,0,0,48,554.743,150.346)">
            <path d="M0.339,0.01C0.278,0.01 0.224,-0.002 0.176,-0.027C0.127,-0.051 0.089,-0.085 0.062,-0.128C0.035,-0.171 0.021,-0.219 0.021,-0.274C0.021,-0.329 0.035,-0.377 0.062,-0.421C0.089,-0.463 0.127,-0.497 0.176,-0.521C0.224,-0.545 0.278,-0.557 0.339,-0.557C0.4,-0.557 0.455,-0.545 0.504,-0.521C0.552,-0.497 0.59,-0.463 0.617,-0.421C0.644,-0.377 0.657,-0.329 0.657,-0.274C0.657,-0.219 0.644,-0.171 0.617,-0.128C0.59,-0.085 0.552,-0.051 0.504,-0.027C0.455,-0.002 0.4,0.01 0.339,0.01ZM0.339,-0.166C0.365,-0.166 0.386,-0.175 0.403,-0.195C0.42,-0.214 0.428,-0.24 0.428,-0.274C0.428,-0.308 0.42,-0.334 0.403,-0.353C0.386,-0.372 0.365,-0.381 0.339,-0.381C0.313,-0.381 0.292,-0.372 0.275,-0.353C0.258,-0.334 0.25,-0.308 0.25,-0.274C0.25,-0.24 0.258,-0.214 0.275,-0.195C0.292,-0.175 0.313,-0.166 0.339,-0.166Z" style="fill:#fff;fill-rule:nonzero;"/>
        </g>
        <g transform="matrix(48,0,0,48,587.287,150.346)">
            <path d="M0.43,-0.557C0.497,-0.557 0.552,-0.537 0.593,-0.496C0.634,-0.455 0.654,-0.394 0.654,-0.312L0.654,0L0.428,0L0.428,-0.273C0.428,-0.336 0.406,-0.367 0.361,-0.367C0.336,-0.367 0.315,-0.358 0.3,-0.341C0.284,-0.323 0.276,-0.295 0.276,-0.257L0.276,0L0.05,0L0.05,-0.547L0.265,-0.547L0.265,-0.493C0.286,-0.514 0.311,-0.53 0.339,-0.541C0.367,-0.552 0.397,-0.557 0.43,-0.557Z" style="fill:#fff;fill-rule:nonzero;"/>
        </g>
        <g transform="matrix(48,0,0,48,621.463,150.346)">
            <path d="M0.661,-0.547L0.661,-0.109C0.661,-0.005 0.632,0.073 0.575,0.126C0.517,0.178 0.435,0.204 0.328,0.204C0.273,0.204 0.222,0.198 0.175,0.187C0.128,0.175 0.087,0.158 0.054,0.136L0.13,-0.018C0.151,-0.002 0.178,0.011 0.211,0.021C0.244,0.031 0.275,0.036 0.305,0.036C0.35,0.036 0.383,0.026 0.404,0.007C0.425,-0.012 0.435,-0.041 0.435,-0.078L0.435,-0.088C0.401,-0.049 0.351,-0.03 0.284,-0.03C0.237,-0.03 0.194,-0.041 0.154,-0.063C0.113,-0.084 0.081,-0.115 0.057,-0.156C0.033,-0.196 0.021,-0.242 0.021,-0.294C0.021,-0.346 0.033,-0.392 0.057,-0.432C0.081,-0.472 0.113,-0.503 0.154,-0.525C0.194,-0.546 0.237,-0.557 0.284,-0.557C0.359,-0.557 0.413,-0.533 0.446,-0.485L0.446,-0.547L0.661,-0.547ZM0.344,-0.206C0.371,-0.206 0.393,-0.214 0.411,-0.231C0.428,-0.247 0.437,-0.268 0.437,-0.294C0.437,-0.32 0.428,-0.341 0.411,-0.357C0.393,-0.373 0.371,-0.381 0.344,-0.381C0.317,-0.381 0.294,-0.373 0.277,-0.357C0.259,-0.341 0.25,-0.32 0.25,-0.294C0.25,-0.268 0.259,-0.247 0.277,-0.231C0.295,-0.214 0.317,-0.206 0.344,-0.206Z" style="fill:#fff;fill-rule:nonzero;"/>
        </g>
        <g transform="matrix(48,0,0,48,655.591,150.346)">
            <path d="M0.415,-0.557C0.463,-0.557 0.507,-0.546 0.548,-0.523C0.588,-0.5 0.62,-0.466 0.644,-0.424C0.667,-0.381 0.679,-0.331 0.679,-0.274C0.679,-0.217 0.667,-0.167 0.644,-0.124C0.62,-0.081 0.588,-0.048 0.548,-0.025C0.507,-0.002 0.463,0.01 0.415,0.01C0.348,0.01 0.298,-0.008 0.265,-0.045L0.265,0L0.05,0L0.05,-0.742L0.276,-0.742L0.276,-0.51C0.308,-0.541 0.354,-0.557 0.415,-0.557ZM0.361,-0.166C0.387,-0.166 0.408,-0.175 0.425,-0.195C0.442,-0.214 0.45,-0.24 0.45,-0.274C0.45,-0.308 0.442,-0.334 0.425,-0.353C0.408,-0.372 0.387,-0.381 0.361,-0.381C0.335,-0.381 0.314,-0.372 0.297,-0.353C0.28,-0.334 0.272,-0.308 0.272,-0.274C0.272,-0.24 0.28,-0.214 0.297,-0.195C0.314,-0.175 0.335,-0.166 0.361,-0.166Z" style="fill:#fff;fill-rule:nonzero;"/>
        </g>
        <g transform="matrix(48,0,0,48,689.191,150.346)">
            <path d="M0.339,0.01C0.278,0.01 0.224,-0.002 0.176,-0.027C0.127,-0.051 0.089,-0.085 0.062,-0.128C0.035,-0.171 0.021,-0.219 0.021,-0.274C0.021,-0.329 0.035,-0.377 0.062,-0.421C0.089,-0.463 0.127,-0.497 0.176,-0.521C0.224,-0.545 0.278,-0.557 0.339,-0.557C0.4,-0.557 0.455,-0.545 0.504,-0.521C0.552,-0.497 0.59,-0.463 0.617,-0.421C0.644,-0.377 0.657,-0.329 0.657,-0.274C0.657,-0.219 0.644,-0.171 0.617,-0.128C0.59,-0.085 0.552,-0.051 0.504,-0.027C0.455,-0.002 0.4,0.01 0.339,0.01ZM0.339,-0.166C0.365,-0.166 0.386,-0.175 0.403,-0.195C0.42,-0.214 0.428,-0.24 0.428,-0.274C0.428,-0.308 0.42,-0.334 0.403,-0.353C0.386,-0.372 0.365,-0.381 0.339,-0.381C0.313,-0.381 0.292,-0.372 0.275,-0.353C0.258,-0.334 0.25,-0.308 0.25,-0.274C0.25,-0.24 0.258,-0.214 0.275,-0.195C0.292,-0.175 0.313,-0.166 0.339,-0.166Z" style="fill:#fff;fill-rule:nonzero;"/>
        </g>
        <g transform="matrix(48,0,0,48,721.015,150.346)">
            <path d="M0.983,-0.547L0.793,0L0.573,0L0.49,-0.253L0.404,0L0.184,0L-0.006,-0.547L0.208,-0.547L0.302,-0.258L0.4,-0.547L0.592,-0.547L0.687,-0.255L0.785,-0.547L0.983,-0.547Z" style="fill:#fff;fill-rule:nonzero;"/>
        </g>
        <g transform="matrix(48,0,0,48,362.407,198.346)">
            <path d="M0.632,-0.274C0.632,-0.271 0.631,-0.253 0.629,-0.221L0.249,-0.221C0.257,-0.2 0.27,-0.185 0.289,-0.174C0.308,-0.163 0.331,-0.157 0.359,-0.157C0.383,-0.157 0.403,-0.16 0.42,-0.166C0.436,-0.172 0.454,-0.182 0.473,-0.197L0.591,-0.078C0.538,-0.019 0.458,0.01 0.352,0.01C0.286,0.01 0.228,-0.002 0.178,-0.027C0.128,-0.051 0.089,-0.085 0.062,-0.128C0.035,-0.171 0.021,-0.22 0.021,-0.274C0.021,-0.329 0.035,-0.377 0.062,-0.421C0.089,-0.463 0.126,-0.497 0.173,-0.521C0.22,-0.545 0.272,-0.557 0.331,-0.557C0.386,-0.557 0.437,-0.546 0.483,-0.524C0.528,-0.502 0.565,-0.47 0.592,-0.427C0.619,-0.384 0.632,-0.333 0.632,-0.274ZM0.333,-0.403C0.31,-0.403 0.29,-0.397 0.275,-0.384C0.26,-0.371 0.25,-0.353 0.245,-0.33L0.421,-0.33C0.416,-0.353 0.406,-0.371 0.391,-0.384C0.376,-0.397 0.356,-0.403 0.333,-0.403Z" style="fill:#fff;fill-rule:nonzero;"/>
        </g>
        <g transform="matrix(48,0,0,48,393.751,198.346)">
            <path d="M0.453,-0.019C0.419,0 0.373,0.01 0.314,0.01C0.237,0.01 0.178,-0.008 0.137,-0.046C0.096,-0.083 0.075,-0.138 0.075,-0.212L0.075,-0.352L0,-0.352L0,-0.517L0.075,-0.517L0.075,-0.67L0.301,-0.67L0.301,-0.517L0.413,-0.517L0.413,-0.352L0.301,-0.352L0.301,-0.214C0.301,-0.197 0.305,-0.184 0.314,-0.175C0.323,-0.166 0.334,-0.161 0.348,-0.161C0.367,-0.161 0.384,-0.166 0.399,-0.176L0.453,-0.019Z" style="fill:#fff;fill-rule:nonzero;"/>
        </g>
        <g transform="matrix(48,0,0,48,430.231,198.346)">
            <path d="M0.295,-0.557C0.391,-0.557 0.464,-0.536 0.515,-0.493C0.566,-0.45 0.591,-0.383 0.591,-0.294L0.591,0L0.381,0L0.381,-0.072C0.355,-0.017 0.303,0.01 0.226,0.01C0.183,0.01 0.146,0.003 0.116,-0.013C0.085,-0.028 0.062,-0.048 0.047,-0.074C0.031,-0.099 0.023,-0.128 0.023,-0.16C0.023,-0.214 0.044,-0.255 0.085,-0.283C0.126,-0.311 0.189,-0.325 0.273,-0.325L0.364,-0.325C0.357,-0.368 0.322,-0.389 0.261,-0.389C0.236,-0.389 0.211,-0.385 0.186,-0.378C0.161,-0.37 0.139,-0.359 0.121,-0.346L0.049,-0.495C0.08,-0.514 0.118,-0.53 0.163,-0.541C0.207,-0.552 0.251,-0.557 0.295,-0.557ZM0.294,-0.126C0.31,-0.126 0.324,-0.13 0.337,-0.139C0.35,-0.148 0.359,-0.161 0.365,-0.178L0.365,-0.216L0.309,-0.216C0.263,-0.216 0.24,-0.201 0.24,-0.17C0.24,-0.157 0.245,-0.147 0.255,-0.139C0.264,-0.13 0.277,-0.126 0.294,-0.126Z" style="fill:#fff;fill-rule:nonzero;"/>
        </g>
        <g transform="matrix(48,0,0,48,460.903,198.346)">
            <path d="M0.265,-0.488C0.305,-0.534 0.364,-0.557 0.442,-0.557L0.442,-0.357C0.424,-0.36 0.407,-0.361 0.392,-0.361C0.315,-0.361 0.276,-0.322 0.276,-0.243L0.276,0L0.05,0L0.05,-0.547L0.265,-0.547L0.265,-0.488Z" style="fill:#fff;fill-rule:nonzero;"/>
        </g>
        <g transform="matrix(48,0,0,48,482.551,198.346)">
            <path d="M0.344,0.01C0.282,0.01 0.227,-0.002 0.178,-0.026C0.129,-0.05 0.09,-0.084 0.063,-0.127C0.035,-0.17 0.021,-0.219 0.021,-0.274C0.021,-0.329 0.035,-0.377 0.063,-0.421C0.09,-0.463 0.129,-0.497 0.178,-0.521C0.227,-0.545 0.282,-0.557 0.344,-0.557C0.411,-0.557 0.468,-0.543 0.515,-0.514C0.562,-0.485 0.595,-0.446 0.613,-0.395L0.438,-0.309C0.417,-0.357 0.385,-0.381 0.343,-0.381C0.316,-0.381 0.294,-0.372 0.277,-0.353C0.259,-0.334 0.25,-0.308 0.25,-0.274C0.25,-0.239 0.259,-0.213 0.277,-0.194C0.294,-0.175 0.316,-0.166 0.343,-0.166C0.385,-0.166 0.417,-0.19 0.438,-0.238L0.613,-0.152C0.595,-0.101 0.562,-0.062 0.515,-0.033C0.468,-0.004 0.411,0.01 0.344,0.01Z" style="fill:#fff;fill-rule:nonzero;"/>
        </g>
        <g transform="matrix(48,0,0,48,526.471,198.346)">
            <path d="M0.344,0.01C0.282,0.01 0.227,-0.002 0.178,-0.026C0.129,-0.05 0.09,-0.084 0.063,-0.127C0.035,-0.17 0.021,-0.219 0.021,-0.274C0.021,-0.329 0.035,-0.377 0.063,-0.421C0.09,-0.463 0.129,-0.497 0.178,-0.521C0.227,-0.545 0.282,-0.557 0.344,-0.557C0.411,-0.557 0.468,-0.543 0.515,-0.514C0.562,-0.485 0.595,-0.446 0.613,-0.395L0.438,-0.309C0.417,-0.357 0.385,-0.381 0.343,-0.381C0.316,-0.381 0.294,-0.372 0.277,-0.353C0.259,-0.334 0.25,-0.308 0.25,-0.274C0.25,-0.239 0.259,-0.213 0.277,-0.194C0.294,-0.175 0.316,-0.166 0.343,-0.166C0.385,-0.166 0.417,-0.19 0.438,-0.238L0.613,-0.152C0.595,-0.101 0.562,-0.062 0.515,-0.033C0.468,-0.004 0.411,0.01 0.344,0.01Z" style="fill:#fff;fill-rule:nonzero;"/>
        </g>
        <g transform="matrix(48,0,0,48,555.991,198.346)">
            <path d="M0.43,-0.557C0.497,-0.557 0.552,-0.537 0.593,-0.496C0.634,-0.455 0.654,-0.394 0.654,-0.312L0.654,0L0.428,0L0.428,-0.273C0.428,-0.336 0.406,-0.367 0.361,-0.367C0.336,-0.367 0.315,-0.358 0.3,-0.341C0.284,-0.323 0.276,-0.295 0.276,-0.257L0.276,0L0.05,0L0.05,-0.742L0.276,-0.742L0.276,-0.503C0.318,-0.539 0.369,-0.557 0.43,-0.557Z" style="fill:#fff;fill-rule:nonzero;"/>
        </g>
        <g transform="matrix(48,0,0,48,589.687,198.346)">
            <path d="M0.295,-0.557C0.391,-0.557 0.464,-0.536 0.515,-0.493C0.566,-0.45 0.591,-0.383 0.591,-0.294L0.591,0L0.381,0L0.381,-0.072C0.355,-0.017 0.303,0.01 0.226,0.01C0.183,0.01 0.146,0.003 0.116,-0.013C0.085,-0.028 0.062,-0.048 0.047,-0.074C0.031,-0.099 0.023,-0.128 0.023,-0.16C0.023,-0.214 0.044,-0.255 0.085,-0.283C0.126,-0.311 0.189,-0.325 0.273,-0.325L0.364,-0.325C0.357,-0.368 0.322,-0.389 0.261,-0.389C0.236,-0.389 0.211,-0.385 0.186,-0.378C0.161,-0.37 0.139,-0.359 0.121,-0.346L0.049,-0.495C0.08,-0.514 0.118,-0.53 0.163,-0.541C0.207,-0.552 0.251,-0.557 0.295,-0.557ZM0.294,-0.126C0.31,-0.126 0.324,-0.13 0.337,-0.139C0.35,-0.148 0.359,-0.161 0.365,-0.178L0.365,-0.216L0.309,-0.216C0.263,-0.216 0.24,-0.201 0.24,-0.17C0.24,-0.157 0.245,-0.147 0.255,-0.139C0.264,-0.13 0.277,-0.126 0.294,-0.126Z" style="fill:#fff;fill-rule:nonzero;"/>
        </g>
        <g transform="matrix(48,0,0,48,620.359,198.346)">
            <path d="M0.264,0.01C0.217,0.01 0.171,0.005 0.126,-0.005C0.081,-0.015 0.044,-0.028 0.016,-0.044L0.078,-0.193C0.103,-0.178 0.133,-0.166 0.168,-0.157C0.203,-0.148 0.236,-0.144 0.269,-0.144C0.295,-0.144 0.313,-0.146 0.324,-0.151C0.334,-0.155 0.339,-0.161 0.339,-0.17C0.339,-0.179 0.333,-0.185 0.32,-0.188C0.307,-0.191 0.285,-0.195 0.256,-0.198C0.211,-0.203 0.173,-0.21 0.142,-0.219C0.111,-0.227 0.083,-0.243 0.06,-0.267C0.036,-0.291 0.024,-0.325 0.024,-0.37C0.024,-0.405 0.035,-0.437 0.056,-0.465C0.077,-0.493 0.109,-0.515 0.152,-0.532C0.194,-0.549 0.245,-0.557 0.304,-0.557C0.345,-0.557 0.386,-0.553 0.426,-0.546C0.465,-0.538 0.499,-0.527 0.527,-0.512L0.465,-0.363C0.417,-0.39 0.364,-0.403 0.307,-0.403C0.258,-0.403 0.233,-0.394 0.233,-0.377C0.233,-0.368 0.24,-0.362 0.253,-0.359C0.266,-0.355 0.287,-0.351 0.316,-0.348C0.361,-0.343 0.399,-0.336 0.43,-0.327C0.46,-0.318 0.488,-0.302 0.512,-0.278C0.535,-0.254 0.547,-0.22 0.547,-0.175C0.547,-0.141 0.536,-0.11 0.515,-0.082C0.494,-0.054 0.462,-0.032 0.419,-0.015C0.376,0.002 0.325,0.01 0.264,0.01Z" style="fill:#fff;fill-rule:nonzero;"/>
        </g>
        <g transform="matrix(48,0,0,48,647.479,198.346)">
            <path d="M0.264,0.01C0.217,0.01 0.171,0.005 0.126,-0.005C0.081,-0.015 0.044,-0.028 0.016,-0.044L0.078,-0.193C0.103,-0.178 0.133,-0.166 0.168,-0.157C0.203,-0.148 0.236,-0.144 0.269,-0.144C0.295,-0.144 0.313,-0.146 0.324,-0.151C0.334,-0.155 0.339,-0.161 0.339,-0.17C0.339,-0.179 0.333,-0.185 0.32,-0.188C0.307,-0.191 0.285,-0.195 0.256,-0.198C0.211,-0.203 0.173,-0.21 0.142,-0.219C0.111,-0.227 0.083,-0.243 0.06,-0.267C0.036,-0.291 0.024,-0.325 0.024,-0.37C0.024,-0.405 0.035,-0.437 0.056,-0.465C0.077,-0.493 0.109,-0.515 0.152,-0.532C0.194,-0.549 0.245,-0.557 0.304,-0.557C0.345,-0.557 0.386,-0.553 0.426,-0.546C0.465,-0.538 0.499,-0.527 0.527,-0.512L0.465,-0.363C0.417,-0.39 0.364,-0.403 0.307,-0.403C0.258,-0.403 0.233,-0.394 0.233,-0.377C0.233,-0.368 0.24,-0.362 0.253,-0.359C0.266,-0.355 0.287,-0.351 0.316,-0.348C0.361,-0.343 0.399,-0.336 0.43,-0.327C0.46,-0.318 0.488,-0.302 0.512,-0.278C0.535,-0.254 0.547,-0.22 0.547,-0.175C0.547,-0.141 0.536,-0.11 0.515,-0.082C0.494,-0.054 0.462,-0.032 0.419,-0.015C0.376,0.002 0.325,0.01 0.264,0.01Z" style="fill:#fff;fill-rule:nonzero;"/>
        </g>
        <g transform="matrix(48,0,0,48,674.599,198.346)">
            <path d="M0.632,-0.274C0.632,-0.271 0.631,-0.253 0.629,-0.221L0.249,-0.221C0.257,-0.2 0.27,-0.185 0.289,-0.174C0.308,-0.163 0.331,-0.157 0.359,-0.157C0.383,-0.157 0.403,-0.16 0.42,-0.166C0.436,-0.172 0.454,-0.182 0.473,-0.197L0.591,-0.078C0.538,-0.019 0.458,0.01 0.352,0.01C0.286,0.01 0.228,-0.002 0.178,-0.027C0.128,-0.051 0.089,-0.085 0.062,-0.128C0.035,-0.171 0.021,-0.22 0.021,-0.274C0.021,-0.329 0.035,-0.377 0.062,-0.421C0.089,-0.463 0.126,-0.497 0.173,-0.521C0.22,-0.545 0.272,-0.557 0.331,-0.557C0.386,-0.557 0.437,-0.546 0.483,-0.524C0.528,-0.502 0.565,-0.47 0.592,-0.427C0.619,-0.384 0.632,-0.333 0.632,-0.274ZM0.333,-0.403C0.31,-0.403 0.29,-0.397 0.275,-0.384C0.26,-0.371 0.25,-0.353 0.245,-0.33L0.421,-0.33C0.416,-0.353 0.406,-0.371 0.391,-0.384C0.376,-0.397 0.356,-0.403 0.333,-0.403Z" style="fill:#fff;fill-rule:nonzero;"/>
        </g>
    </g>
</svg>
