<svg clip-rule="evenodd" fill-rule="evenodd" stroke-linejoin="round" stroke-miterlimit="2" viewBox="0 0 2049 2049" xmlns="http://www.w3.org/2000/svg"><g transform="matrix(1.50397 0 0 1.40033 -9973.44 -9119.17)"><path d="m6631.97 6512.71h1361.64v1462.42h-1361.64z" fill="none"/><g fill-rule="nonzero"><path d="m0-64.116c26.244 0 49.752 12.453 64.495 34.163 8.194 12.066 12.718 25.595 13.471 39.42h9.362c-.79-15.772-5.851-31.269-14.999-44.74-16.293-23.989-43.33-38.31-72.329-38.31-2.615 0-4.733 2.118-4.733 4.734 0 2.615 2.118 4.733 4.733 4.733" fill="#693991" transform="matrix(5.98859484 0 0 6.43181243 7130.139478 7119.280493)"/><path d="m0-72.195c-.377 1.083-.749 2.167-1.176 3.242l-4.075 10.272c-11.861 29.895-40.307 49.215-72.469 49.215h-60.264c-2.616 0-4.734 2.118-4.734 4.733s2.118 4.733 4.734 4.733h60.264c36.069 0 67.971-21.663 81.272-55.19l4.074-10.272c.881-2.22 1.631-4.471 2.322-6.733z" fill="#693991" transform="matrix(5.98859484 0 0 6.43181243 7571.160714 7836.742228)"/><path d="m0 15.638c-5.118 11.515-17.143 17.349-26.858 13.031-9.716-4.319-13.444-17.154-8.326-28.669 5.119-11.514 17.143-17.349 26.859-13.03 9.716 4.318 13.443 17.153 8.325 28.668" fill="#00b3ea" transform="matrix(5.98859484 0 0 6.43181243 7329.863638 7008.84199)"/><path d="m0 19.072c-5.589-2.546-11.179-5.086-16.768-7.628-2.291-1.042-4.583-2.078-6.871-3.125-.507-.232-1.007-.296-1.511-.028-.871.462-1.061 1.407-.491 2.358 1.18 1.965 2.362 3.929 3.543 5.895h-127.323c-4.115 0-8.154-1.891-10.325-5.388-2.266-3.646-2.332-8.078-.201-11.771l2.153-3.675c1.053-1.798 1.376-4.022.542-5.931-1.028-2.351-3.239-3.785-5.741-3.785h-18.958c-2.222 0-4.295 1.196-5.406 3.122l-10.626 16.022c-2.374 4.109-2.3 9.041.218 13.1 2.418 3.89 6.912 5.995 11.491 5.995h164.344c-.293.488-.588.975-.881 1.464-.963 1.604-1.929 3.207-2.891 4.813-.427.713-.354 1.442.184 1.979.509.509 1.131.589 1.909.235 3.15-1.43 6.297-2.864 9.447-4.296 4.704-2.137 9.409-4.27 14.108-6.418.289-.132.595-.327.778-.577.626-.859.297-1.896-.724-2.361" fill="#693991" transform="matrix(5.98859484 0 0 6.43181243 7910.256368 7144.255599)"/><path d="m0-44.187c-4.643 3.251-8.615 7.493-11.532 12.544l-11.102 19.227c-1.494 2.592-1.494 5.686 0 8.279 1.498 2.59 4.179 4.137 7.17 4.137h25.669c4.336 0 8.376-2.332 10.544-6.085l10.904-18.886c6.748-11.69 19.242-19.002 32.712-19.216z" fill="#00b3ea" transform="matrix(5.98859484 0 0 6.43181243 6967.255434 7622.790635)"/></g></g></svg>